# Blender 5.1.2
# www.blender.org
mtllib Block2.mtl
o Cube.017
v -0.232029 0.249999 0.232029
v -0.232029 0.249999 -0.231982
v 0.231982 0.249999 0.232029
v 0.231982 0.249999 -0.231982
v -0.244865 0.249999 -0.244818
v -0.250000 0.244864 -0.249953
v 0.244818 0.249999 -0.244818
v 0.249953 0.244864 -0.249953
v 0.244818 0.249999 0.244865
v 0.249953 0.244864 0.250000
v -0.244865 0.249999 0.244865
v -0.250000 0.244864 0.250000
v 0.231983 -0.253423 0.232029
v 0.231983 -0.253423 -0.231982
v -0.232029 -0.253423 0.232029
v -0.232029 -0.253423 -0.231982
v 0.244818 -0.253423 -0.244818
v 0.249954 -0.248288 -0.249953
v -0.244864 -0.253423 -0.244818
v -0.250000 -0.248288 -0.249953
v -0.244864 -0.253423 0.244865
v -0.250000 -0.248288 0.250000
v 0.244818 -0.253423 0.244865
v 0.249954 -0.248288 0.250000
v -0.250000 0.111588 -0.249953
v -0.250000 0.131565 -0.249953
v -0.254649 0.121576 -0.254602
v -0.250000 0.111588 0.250000
v -0.250000 0.131565 0.250000
v -0.254649 0.121576 0.254649
v 0.249953 0.111588 0.250000
v 0.249953 0.131565 0.250000
v 0.254602 0.121576 0.254649
v 0.249953 0.111588 -0.249953
v 0.249953 0.131565 -0.249953
v 0.254602 0.121576 -0.254602
v -0.250000 -0.115011 -0.249953
v -0.250000 -0.134988 -0.249953
v -0.254648 -0.125000 -0.254602
v -0.250000 -0.115012 0.250000
v -0.250000 -0.134988 0.250000
v -0.254648 -0.125000 0.254649
v 0.249953 -0.115011 0.250000
v 0.249953 -0.134988 0.250000
v 0.254602 -0.125000 0.254649
v 0.249953 -0.115011 -0.249953
v 0.249953 -0.134988 -0.249953
v 0.254602 -0.125000 -0.254602
v -0.250000 0.035274 -0.249953
v -0.250000 -0.038697 -0.249953
v -0.250000 0.035274 0.250000
v -0.250000 -0.038697 0.250000
v 0.249953 0.035274 0.250000
v 0.249953 -0.038697 0.250000
v 0.249953 0.035274 -0.249953
v 0.249953 -0.038697 -0.249953
v -0.165742 0.249999 -0.231982
v -0.099455 0.249999 -0.231982
v -0.033167 0.249999 -0.231982
v 0.033120 0.249999 -0.231982
v 0.099407 0.249999 -0.231982
v 0.165695 0.249999 -0.231982
v 0.165695 0.249999 0.232029
v 0.099407 0.249999 0.232029
v 0.033120 0.249999 0.232029
v -0.033167 0.249999 0.232029
v -0.099455 0.249999 0.232029
v -0.165742 0.249999 0.232029
v -0.174910 0.249999 -0.244818
v -0.104955 0.249999 -0.244818
v -0.035001 0.249999 -0.244818
v 0.034954 0.249999 -0.244818
v 0.104908 0.249999 -0.244818
v 0.174863 0.249999 -0.244818
v 0.174863 0.249999 0.244865
v 0.104908 0.249999 0.244865
v 0.034954 0.249999 0.244865
v -0.035001 0.249999 0.244865
v -0.104955 0.249999 0.244865
v -0.174910 0.249999 0.244865
v -0.178578 0.244864 0.250000
v -0.107156 0.244864 0.250000
v -0.035734 0.244864 0.250000
v 0.035687 0.244864 0.250000
v 0.107109 0.244864 0.250000
v 0.178531 0.244864 0.250000
v 0.165695 -0.253423 -0.231982
v 0.099408 -0.253423 -0.231982
v 0.033121 -0.253423 -0.231982
v -0.033167 -0.253423 -0.231982
v -0.099454 -0.253423 -0.231982
v -0.165741 -0.253423 -0.231982
v -0.165741 -0.253423 0.232029
v -0.099454 -0.253423 0.232029
v -0.033167 -0.253423 0.232029
v 0.033121 -0.253423 0.232029
v 0.099408 -0.253423 0.232029
v 0.165695 -0.253423 0.232029
v 0.174864 -0.253423 -0.244818
v 0.104909 -0.253423 -0.244818
v 0.034954 -0.253423 -0.244818
v -0.035000 -0.253423 -0.244818
v -0.104955 -0.253423 -0.244818
v -0.174910 -0.253423 -0.244818
v 0.178532 -0.248288 -0.249953
v 0.107110 -0.248288 -0.249953
v 0.035688 -0.248288 -0.249953
v -0.035734 -0.248288 -0.249953
v -0.107156 -0.248288 -0.249953
v -0.178578 -0.248288 -0.249953
v -0.174910 -0.253423 0.244865
v -0.104955 -0.253423 0.244865
v -0.035000 -0.253423 0.244865
v 0.034954 -0.253423 0.244865
v 0.104909 -0.253423 0.244865
v 0.174864 -0.253423 0.244865
v -0.178578 -0.248288 0.250000
v -0.107156 -0.248288 0.250000
v -0.035734 -0.248288 0.250000
v 0.035688 -0.248288 0.250000
v 0.107110 -0.248288 0.250000
v 0.178532 -0.248288 0.250000
v 0.178531 0.111588 -0.249953
v 0.107109 0.111588 -0.249953
v 0.035688 0.111588 -0.249953
v -0.035734 0.111588 -0.249953
v -0.107156 0.111588 -0.249953
v -0.178578 0.111588 -0.249953
v -0.178578 0.111588 0.250000
v -0.107156 0.111588 0.250000
v -0.035734 0.111588 0.250000
v 0.035688 0.111588 0.250000
v 0.107109 0.111588 0.250000
v 0.178531 0.111588 0.250000
v 0.181852 0.121576 0.254649
v 0.109102 0.121576 0.254649
v 0.036352 0.121576 0.254649
v -0.036398 0.121576 0.254649
v -0.109149 0.121576 0.254649
v -0.181899 0.121576 0.254649
v 0.178531 0.131565 0.250000
v 0.107109 0.131565 0.250000
v 0.035688 0.131565 0.250000
v -0.035734 0.131565 0.250000
v -0.107156 0.131565 0.250000
v -0.178578 0.131565 0.250000
v -0.181899 0.121576 -0.254602
v -0.109149 0.121576 -0.254602
v -0.036398 0.121576 -0.254602
v 0.036352 0.121576 -0.254602
v 0.109102 0.121576 -0.254602
v 0.181852 0.121576 -0.254602
v -0.178578 0.131565 -0.249953
v -0.107156 0.131565 -0.249953
v -0.035734 0.131565 -0.249953
v 0.035688 0.131565 -0.249953
v 0.107109 0.131565 -0.249953
v 0.178531 0.131565 -0.249953
v -0.178578 -0.134988 0.250000
v -0.107156 -0.134988 0.250000
v -0.035734 -0.134988 0.250000
v 0.035688 -0.134988 0.250000
v 0.107110 -0.134988 0.250000
v 0.178532 -0.134988 0.250000
v 0.181852 -0.125000 0.254649
v 0.109102 -0.125000 0.254649
v 0.036352 -0.125000 0.254649
v -0.036398 -0.125000 0.254649
v -0.109148 -0.125000 0.254649
v -0.181898 -0.125000 0.254649
v 0.178532 -0.115011 0.250000
v 0.107110 -0.115011 0.250000
v 0.035688 -0.115011 0.250000
v -0.035734 -0.115011 0.250000
v -0.107156 -0.115011 0.250000
v -0.178578 -0.115011 0.250000
v 0.178532 -0.134988 -0.249953
v 0.107110 -0.134988 -0.249953
v 0.035688 -0.134988 -0.249953
v -0.035734 -0.134988 -0.249953
v -0.107156 -0.134988 -0.249953
v -0.178578 -0.134988 -0.249953
v -0.181898 -0.125000 -0.254602
v -0.109148 -0.125000 -0.254602
v -0.036398 -0.125000 -0.254602
v 0.036352 -0.125000 -0.254602
v 0.109102 -0.125000 -0.254602
v 0.181852 -0.125000 -0.254602
v -0.178578 -0.115011 -0.249953
v -0.107156 -0.115011 -0.249953
v -0.035734 -0.115011 -0.249953
v 0.035688 -0.115011 -0.249953
v 0.107110 -0.115011 -0.249953
v 0.178532 -0.115011 -0.249953
v -0.178578 -0.038697 0.250000
v -0.107156 -0.038697 0.250000
v -0.035734 -0.038697 0.250000
v 0.035688 -0.038697 0.250000
v 0.107110 -0.038697 0.250000
v 0.178531 -0.038697 0.250000
v 0.178531 0.035274 0.250000
v 0.107110 0.035274 0.250000
v 0.035688 0.035274 0.250000
v -0.035734 0.035274 0.250000
v -0.107156 0.035274 0.250000
v -0.178578 0.035274 0.250000
v 0.178532 -0.038697 -0.249953
v 0.107110 -0.038697 -0.249953
v 0.035688 -0.038697 -0.249953
v -0.035734 -0.038697 -0.249953
v -0.107156 -0.038697 -0.249953
v -0.178578 -0.038697 -0.249953
v -0.178578 0.035274 -0.249953
v -0.107156 0.035274 -0.249953
v -0.035734 0.035274 -0.249953
v 0.035688 0.035274 -0.249953
v 0.107109 0.035274 -0.249953
v 0.178531 0.035274 -0.249953
v 0.178531 0.244864 -0.249953
v 0.107109 0.244864 -0.249953
v 0.035687 0.244864 -0.249953
v -0.035734 0.244864 -0.249953
v -0.107156 0.244864 -0.249953
v -0.178578 0.244864 -0.249953
v 0.168812 -0.028978 -0.290962
v 0.178532 -0.038697 -0.281243
v 0.107110 -0.038697 -0.281243
v 0.116829 -0.028978 -0.290962
v 0.025969 -0.028978 -0.290962
v 0.035688 -0.038697 -0.281243
v -0.035734 -0.038697 -0.281243
v -0.026015 -0.028978 -0.290962
v -0.116875 -0.028978 -0.290962
v -0.107156 -0.038697 -0.281243
v -0.178578 -0.038697 -0.281243
v -0.168859 -0.028978 -0.290962
v -0.168859 0.025555 -0.290962
v -0.178578 0.035274 -0.281243
v -0.107156 0.035274 -0.281243
v -0.116875 0.025555 -0.290962
v -0.026015 0.025555 -0.290962
v -0.035734 0.035274 -0.281243
v 0.035688 0.035274 -0.281243
v 0.025969 0.025555 -0.290962
v 0.116829 0.025555 -0.290962
v 0.107109 0.035274 -0.281243
v 0.178531 0.035274 -0.281243
v 0.168812 0.025555 -0.290962
vn -0.0000 1.0000 -0.0000
vn -0.0000 0.7071 0.7071
vn -0.7071 0.7071 -0.0000
vn 0.7071 0.7071 -0.0000
vn -0.0000 0.7071 -0.7071
vn -0.0000 -1.0000 -0.0000
vn -0.0000 -0.7071 0.7071
vn 0.7071 -0.7071 -0.0000
vn -0.7071 -0.7071 -0.0000
vn -0.0000 -0.7071 -0.7071
vn -0.9066 -0.4220 -0.0000
vn -0.9066 0.4220 -0.0000
vn -0.0000 -0.4219 0.9066
vn -0.0000 0.4219 0.9066
vn 0.9066 -0.4219 -0.0000
vn 0.9066 0.4219 -0.0000
vn -0.9066 -0.4219 -0.0000
vn -0.0000 0.4219 -0.9066
vn -0.0000 -0.4219 -0.9066
vn -1.0000 -0.0000 -0.0000
vn -0.0000 -0.0000 1.0000
vn 1.0000 -0.0000 -0.0000
vn -0.0000 -0.0000 -1.0000
vn -0.0000 -0.4220 -0.9066
vn -0.7071 -0.0000 -0.7071
vn 0.7071 -0.0000 -0.7071
vt 0.839286 0.500000
vt 0.875000 0.500000
vt 0.875000 0.750000
vt 0.839286 0.750000
vt 0.625000 0.962692
vt 0.625000 0.998060
vt 0.625000 1.000000
vt 0.625000 0.964286
vt 0.625000 0.001940
vt 0.625000 0.250000
vt 0.625000 0.000000
vt 0.625000 0.499515
vt 0.625000 0.750485
vt 0.625000 0.750000
vt 0.625000 0.500000
vt 0.625000 0.463870
vt 0.625000 0.464286
vt 0.839286 0.750069
vt 0.660714 0.500000
vt 0.660714 0.499584
vt 0.625000 0.962692
vt 0.839286 0.750069
vt 0.625000 0.317564
vt 0.625000 0.202691
vt 0.625000 0.187500
vt 0.625000 0.312500
vt 0.625000 0.172309
vt 0.625000 0.307436
vt 0.625000 0.729725
vt 0.625000 0.817564
vt 0.625000 0.812500
vt 0.625000 0.723214
vt 0.625000 0.807436
vt 0.625000 0.716704
vt 0.625000 0.547309
vt 0.625000 0.432436
vt 0.625000 0.437500
vt 0.625000 0.562500
vt 0.625000 0.442564
vt 0.625000 0.577691
vt 0.625000 0.629815
vt 0.625000 0.616071
vt 0.625000 0.602327
vt 0.625000 0.547309
vt 0.625000 0.432436
vt 0.625000 0.419643
vt 0.625000 0.423260
vt 0.625000 0.326740
vt 0.625000 0.330357
vt 0.625000 0.333974
vt 0.625000 0.107143
vt 0.625000 0.263042
vt 0.625000 0.785714
vt 0.625000 0.356250
vt 0.625000 0.393750
vt 0.625000 0.431249
vt 0.625000 0.318751
vt 0.625000 0.497320
vt 0.625000 0.395537
vt 0.625000 0.318751
vt 0.625000 0.393750
vt 0.625000 0.285714
vt 0.625000 0.361607
vt 0.625000 0.388393
vt 0.625000 0.779465
vt 0.625000 0.856251
vt 0.625000 0.330357
vt 0.625000 0.416026
vt 0.625000 0.399616
vt 0.625000 0.401786
vt 0.625000 0.383205
vt 0.625000 0.383929
vt 0.625000 0.366795
vt 0.625000 0.366071
vt 0.625000 0.350384
vt 0.625000 0.348214
vt 0.625000 0.290530
vt 0.625000 0.472323
vt 0.625000 0.378369
vt 0.625000 0.549108
vt 0.625000 0.466208
vt 0.625000 0.625894
vt 0.625000 0.554047
vt 0.625000 0.702679
vt 0.625000 0.641886
vt 0.625000 0.893749
vt 0.625000 0.827678
vt 0.625000 0.877418
vt 0.625000 0.932436
vt 0.625000 0.761606
vt 0.625000 0.822400
vt 0.625000 0.695535
vt 0.625000 0.767382
vt 0.625000 0.629463
vt 0.625000 0.712364
vt 0.625000 0.563392
vt 0.625000 0.657346
vt 0.625000 0.383036
vt 0.625000 0.377679
vt 0.625000 0.372322
vt 0.625000 0.366965
vt 0.625000 0.388393
vt 0.625000 0.416026
vt 0.625000 0.383036
vt 0.625000 0.377679
vt 0.625000 0.383205
vt 0.625000 0.372321
vt 0.625000 0.366795
vt 0.625000 0.366964
vt 0.625000 0.350384
vt 0.625000 0.403956
vt 0.625000 0.428571
vt 0.625000 0.384652
vt 0.625000 0.392857
vt 0.625000 0.365348
vt 0.625000 0.357143
vt 0.625000 0.346044
vt 0.625000 0.321429
vt 0.625000 0.942564
vt 0.625000 0.890439
vt 0.625000 0.838314
vt 0.625000 0.928571
vt 0.625000 0.786190
vt 0.625000 0.892857
vt 0.625000 0.734065
vt 0.625000 0.857143
vt 0.625000 0.681940
vt 0.625000 0.821429
vt 0.625000 0.285714
vt 0.625000 0.326740
vt 0.625000 0.357143
vt 0.625000 0.365348
vt 0.625000 0.392857
vt 0.625000 0.428571
vt 0.625000 0.403956
vt 0.625000 0.642857
vt 0.625000 0.535714
vt 0.625000 0.625971
vt 0.625000 0.428571
vt 0.625000 0.535239
vt 0.625000 0.321429
vt 0.625000 0.444507
vt 0.625000 0.214286
vt 0.625000 0.353774
vt 0.625000 0.383929
vt 0.625000 0.366072
vt 0.625000 0.348214
vt 0.625000 0.937500
vt 0.625000 0.883929
vt 0.625000 0.830357
vt 0.625000 0.776786
vt 0.625000 0.723214
vt 0.625000 0.669643
vt 0.625000 0.276786
vt 0.625000 0.366071
vt 0.625000 0.455357
vt 0.625000 0.544643
vt 0.625000 0.633929
vt 0.839286 0.499931
vt 0.803572 0.500000
vt 0.803571 0.499861
vt 0.767857 0.500000
vt 0.767857 0.499792
vt 0.732143 0.500000
vt 0.732143 0.499723
vt 0.696429 0.500000
vt 0.696429 0.499654
vt 0.660714 0.750000
vt 0.660714 0.750416
vt 0.696429 0.750000
vt 0.696429 0.750346
vt 0.732143 0.750000
vt 0.732143 0.750277
vt 0.767857 0.750000
vt 0.767857 0.750208
vt 0.803571 0.750000
vt 0.803571 0.750139
vt 0.625000 0.285645
vt 0.625000 0.321290
vt 0.625000 0.356935
vt 0.625000 0.392580
vt 0.625000 0.428225
vt 0.625000 0.785853
vt 0.625000 0.821221
vt 0.625000 0.856589
vt 0.625000 0.891956
vt 0.625000 0.927324
vt 0.839286 0.499931
vt 0.732143 0.499723
vt 0.696429 0.499654
vt 0.660714 0.750000
vt 0.625000 0.321290
vt 0.625000 0.356935
vt 0.625000 0.428225
vt 0.625000 0.785853
vt 0.625000 0.785714
vt 0.625000 0.821429
vt 0.625000 0.857143
vt 0.625000 0.892857
vt 0.625000 0.927324
vt 0.625000 0.928571
vt 0.625000 0.368671
vt 0.625000 0.365532
vt 0.625000 0.376570
vt 0.625000 0.373430
vt 0.625000 0.383035
vt 0.625000 0.384469
vt 0.625000 0.381329
vt 0.625000 0.368671
vt 0.625000 0.365531
vt 0.625000 0.376570
vt 0.625000 0.373430
vt 0.625000 0.384469
vt 0.625000 0.381329
s 0
f 57/1/1 2/2/1 1/3/1 68/4/1
f 80/5/2 11/6/2 12/7/2 81/8/2
f 11/9/3 5/10/3 6/10/3 12/11/3
f 7/12/4 9/13/4 10/14/4 8/15/4
f 74/16/5 7/12/5 8/15/5 219/17/5
f 68/4/1 1/3/1 11/3/1 80/18/1
f 1/3/1 2/2/1 5/2/1 11/3/1
f 4/15/1 3/14/1 9/13/1 7/12/1
f 87/1/6 14/2/6 13/3/6 98/4/6
f 62/19/1 4/15/1 7/12/1 74/20/1
f 116/21/7 23/6/7 24/7/7 122/8/7
f 23/9/8 17/10/8 18/10/8 24/11/8
f 19/12/9 21/13/9 22/14/9 20/15/9
f 104/16/10 19/12/10 20/15/10 110/17/10
f 98/4/6 13/3/6 23/3/6 116/22/6
f 13/3/6 14/2/6 17/2/6 23/3/6
f 16/15/6 15/14/6 21/13/6 19/12/6
f 92/19/6 16/15/6 19/12/6 104/20/6
f 25/23/11 28/24/11 30/25/11 27/26/11
f 27/26/12 30/25/12 29/27/12 26/28/12
f 134/29/13 31/30/13 33/31/13 135/32/13
f 135/32/14 33/31/14 32/33/14 141/34/14
f 31/35/15 34/36/15 36/37/15 33/38/15
f 33/38/16 36/37/16 35/39/16 32/40/16
f 47/28/15 48/26/15 45/25/15 44/27/15
f 48/26/16 46/23/16 43/24/16 45/25/16
f 159/41/13 170/42/13 42/38/13 41/40/13
f 170/42/14 176/43/14 40/44/14 42/38/14
f 41/40/17 42/38/17 39/37/17 38/39/17
f 42/38/12 40/44/12 37/45/12 39/37/12
f 152/46/18 158/47/18 35/39/18 36/37/18
f 177/48/19 188/49/19 48/26/19 47/28/19
f 188/49/18 194/50/18 46/23/18 48/26/18
f 12/11/20 6/10/20 26/28/20 29/27/20
f 81/51/21 12/11/21 29/27/21 146/52/21
f 8/15/22 10/14/22 32/40/22 35/39/22
f 219/17/23 8/15/23 35/39/23 158/47/23
f 41/40/20 38/39/20 20/15/20 22/14/20
f 159/41/21 41/40/21 22/14/21 117/53/21
f 47/28/22 44/27/22 24/11/22 18/10/22
f 56/54/22 55/55/22 53/56/22 54/57/22
f 195/58/21 206/59/21 51/60/21 52/56/21
f 52/56/20 51/60/20 49/54/20 50/61/20
f 177/48/23 47/28/23 18/10/23 105/62/23
f 207/63/23 218/64/23 55/55/23 56/54/23
f 207/63/23 56/54/23 46/23/23 194/50/23
f 128/50/23 213/63/23 49/54/23 25/23/23
f 52/56/20 50/61/20 37/45/20 40/44/20
f 25/23/20 49/54/20 51/60/20 28/24/20
f 195/58/21 52/56/21 40/44/21 176/43/21
f 134/29/21 201/65/21 53/66/21 31/30/21
f 56/54/22 54/57/22 43/24/22 46/23/22
f 31/35/22 53/56/22 55/55/22 34/36/22
f 128/50/19 25/23/19 27/26/19 147/67/19
f 34/36/19 123/68/19 152/46/19 36/37/19
f 123/68/19 124/69/19 151/70/19 152/46/19
f 124/69/19 125/71/19 150/72/19 151/70/19
f 125/71/19 126/73/19 149/74/19 150/72/19
f 126/73/19 127/75/19 148/76/19 149/74/19
f 127/75/19 128/50/19 147/67/19 148/76/19
f 28/24/21 51/60/21 206/59/21 129/77/21
f 129/77/21 206/59/21 205/78/21 130/79/21
f 130/79/21 205/78/21 204/80/21 131/81/21
f 131/81/21 204/80/21 203/82/21 132/83/21
f 132/83/21 203/82/21 202/84/21 133/85/21
f 133/85/21 202/84/21 201/65/21 134/29/21
f 54/86/21 200/87/21 171/88/21 43/89/21
f 200/87/21 199/90/21 172/91/21 171/88/21
f 199/90/21 198/92/21 173/93/21 172/91/21
f 198/92/21 197/94/21 174/95/21 173/93/21
f 197/94/21 196/96/21 175/97/21 174/95/21
f 196/96/21 195/58/21 176/43/21 175/97/21
f 34/36/23 55/55/23 218/64/23 123/68/23
f 123/68/23 218/64/23 217/98/23 124/69/23
f 124/69/23 217/98/23 216/99/23 125/71/23
f 125/71/23 216/99/23 215/100/23 126/73/23
f 126/73/23 215/100/23 214/101/23 127/75/23
f 127/75/23 214/101/23 213/63/23 128/50/23
f 50/61/23 212/102/23 189/103/23 37/45/23
f 212/102/23 211/104/23 190/69/23 189/103/23
f 211/104/23 210/105/23 191/106/23 190/69/23
f 210/105/23 209/107/23 192/108/23 191/106/23
f 209/107/23 208/109/23 193/110/23 192/108/23
f 208/109/23 207/63/23 194/50/23 193/110/23
f 50/61/23 49/54/23 213/63/23 212/102/23
f 211/104/23 214/101/23 215/100/23 210/105/23
f 209/107/23 216/99/23 217/98/23 208/109/23
f 38/39/23 182/47/23 110/17/23 20/15/23
f 182/47/23 181/111/23 109/112/23 110/17/23
f 181/111/23 180/113/23 108/114/23 109/112/23
f 180/113/23 179/115/23 107/116/23 108/114/23
f 179/115/23 178/117/23 106/118/23 107/116/23
f 178/117/23 177/48/23 105/62/23 106/118/23
f 54/86/21 53/66/21 201/65/21 200/87/21
f 200/87/21 201/65/21 202/84/21 199/90/21
f 199/90/21 202/84/21 203/82/21 198/92/21
f 198/92/21 203/82/21 204/80/21 197/94/21
f 197/94/21 204/80/21 205/78/21 196/96/21
f 196/96/21 205/78/21 206/59/21 195/58/21
f 44/119/21 164/120/21 122/8/21 24/7/21
f 164/120/21 163/121/21 121/122/21 122/8/21
f 163/121/21 162/123/21 120/124/21 121/122/21
f 162/123/21 161/125/21 119/126/21 120/124/21
f 161/125/21 160/127/21 118/128/21 119/126/21
f 160/127/21 159/41/21 117/53/21 118/128/21
f 6/10/23 224/129/23 153/130/23 26/28/23
f 224/129/23 223/118/23 154/117/23 153/130/23
f 223/118/23 222/131/23 155/132/23 154/117/23
f 222/131/23 221/133/23 156/113/23 155/132/23
f 221/133/23 220/134/23 157/135/23 156/113/23
f 220/134/23 219/17/23 158/47/23 157/135/23
f 10/14/21 86/136/21 141/34/21 32/33/21
f 86/136/21 85/137/21 142/138/21 141/34/21
f 85/137/21 84/139/21 143/140/21 142/138/21
f 84/139/21 83/141/21 144/142/21 143/140/21
f 83/141/21 82/143/21 145/144/21 144/142/21
f 82/143/21 81/51/21 146/52/21 145/144/21
f 39/37/18 37/45/18 189/103/18 183/46/18
f 183/46/18 189/103/18 190/69/18 184/70/18
f 184/70/18 190/69/18 191/106/18 185/145/18
f 185/145/18 191/106/18 192/108/18 186/146/18
f 186/146/18 192/108/18 193/110/18 187/147/18
f 187/147/18 193/110/18 194/50/18 188/49/18
f 38/39/19 39/37/19 183/46/19 182/47/19
f 182/47/24 183/46/24 184/70/24 181/111/24
f 181/111/19 184/70/19 185/145/19 180/113/19
f 180/113/19 185/145/19 186/146/19 179/115/19
f 179/115/19 186/146/19 187/147/19 178/117/19
f 178/117/19 187/147/19 188/49/19 177/48/19
f 27/26/18 26/28/18 153/130/18 147/67/18
f 147/67/18 153/130/18 154/117/18 148/76/18
f 148/76/18 154/117/18 155/132/18 149/74/18
f 149/74/18 155/132/18 156/113/18 150/72/18
f 150/72/18 156/113/18 157/135/18 151/70/18
f 151/70/18 157/135/18 158/47/18 152/46/18
f 45/148/14 43/89/14 171/88/14 165/149/14
f 165/149/14 171/88/14 172/91/14 166/150/14
f 166/150/14 172/91/14 173/93/14 167/151/14
f 167/151/14 173/93/14 174/95/14 168/152/14
f 168/152/14 174/95/14 175/97/14 169/153/14
f 169/153/14 175/97/14 176/43/14 170/42/14
f 44/119/13 45/148/13 165/149/13 164/120/13
f 164/120/13 165/149/13 166/150/13 163/121/13
f 163/121/13 166/150/13 167/151/13 162/123/13
f 162/123/13 167/151/13 168/152/13 161/125/13
f 161/125/13 168/152/13 169/153/13 160/127/13
f 160/127/13 169/153/13 170/42/13 159/41/13
f 30/25/14 140/154/14 146/52/14 29/27/14
f 140/154/14 139/155/14 145/144/14 146/52/14
f 139/155/14 138/156/14 144/142/14 145/144/14
f 138/156/14 137/157/14 143/140/14 144/142/14
f 137/157/14 136/158/14 142/138/14 143/140/14
f 136/158/14 135/32/14 141/34/14 142/138/14
f 28/24/13 129/77/13 140/154/13 30/25/13
f 129/77/13 130/79/13 139/155/13 140/154/13
f 130/79/13 131/81/13 138/156/13 139/155/13
f 131/81/13 132/83/13 137/157/13 138/156/13
f 132/83/13 133/85/13 136/158/13 137/157/13
f 133/85/13 134/29/13 135/32/13 136/158/13
f 14/2/6 87/1/6 99/159/6 17/2/6
f 87/1/6 88/160/6 100/161/6 99/159/6
f 88/160/6 89/162/6 101/163/6 100/161/6
f 89/162/6 90/164/6 102/165/6 101/163/6
f 90/164/6 91/166/6 103/167/6 102/165/6
f 91/166/6 92/19/6 104/20/6 103/167/6
f 15/14/6 93/168/6 111/169/6 21/13/6
f 93/168/6 94/170/6 112/171/6 111/169/6
f 94/170/6 95/172/6 113/173/6 112/171/6
f 95/172/6 96/174/6 114/175/6 113/173/6
f 96/174/6 97/176/6 115/177/6 114/175/6
f 97/176/6 98/4/6 116/22/6 115/177/6
f 17/10/10 99/178/10 105/62/10 18/10/10
f 99/178/10 100/179/10 106/118/10 105/62/10
f 100/179/10 101/180/10 107/116/10 106/118/10
f 101/180/10 102/181/10 108/114/10 107/116/10
f 102/181/10 103/182/10 109/112/10 108/114/10
f 103/182/10 104/16/10 110/17/10 109/112/10
f 21/13/7 111/183/7 117/53/7 22/14/7
f 111/183/7 112/184/7 118/128/7 117/53/7
f 112/184/7 113/185/7 119/126/7 118/128/7
f 113/185/7 114/186/7 120/124/7 119/126/7
f 114/186/7 115/187/7 121/122/7 120/124/7
f 115/187/7 116/21/7 122/8/7 121/122/7
f 2/2/1 57/1/1 69/188/1 5/2/1
f 57/1/1 58/160/1 70/161/1 69/188/1
f 58/160/1 59/162/1 71/163/1 70/161/1
f 59/162/1 60/164/1 72/189/1 71/163/1
f 60/164/1 61/166/1 73/190/1 72/189/1
f 61/166/1 62/19/1 74/20/1 73/190/1
f 16/15/6 92/19/6 93/168/6 15/14/6
f 92/19/6 91/166/6 94/170/6 93/168/6
f 91/166/6 90/164/6 95/172/6 94/170/6
f 90/164/6 89/162/6 96/174/6 95/172/6
f 89/162/6 88/160/6 97/176/6 96/174/6
f 88/160/6 87/1/6 98/4/6 97/176/6
f 3/14/1 63/191/1 75/169/1 9/13/1
f 63/191/1 64/170/1 76/171/1 75/169/1
f 64/170/1 65/172/1 77/173/1 76/171/1
f 65/172/1 66/174/1 78/175/1 77/173/1
f 66/174/1 67/176/1 79/177/1 78/175/1
f 67/176/1 68/4/1 80/18/1 79/177/1
f 5/10/5 69/178/5 224/129/5 6/10/5
f 69/178/5 70/192/5 223/118/5 224/129/5
f 70/192/5 71/193/5 222/131/5 223/118/5
f 71/193/5 72/181/5 221/133/5 222/131/5
f 72/181/5 73/194/5 220/134/5 221/133/5
f 73/194/5 74/16/5 219/17/5 220/134/5
f 9/13/2 75/195/2 86/196/2 10/14/2
f 75/195/2 76/184/2 85/197/2 86/196/2
f 76/184/2 77/185/2 84/198/2 85/197/2
f 77/185/2 78/186/2 83/199/2 84/198/2
f 78/186/2 79/200/2 82/201/2 83/199/2
f 79/200/2 80/5/2 81/8/2 82/201/2
f 4/15/1 62/19/1 63/191/1 3/14/1
f 62/19/1 61/166/1 64/170/1 63/191/1
f 61/166/1 60/164/1 65/172/1 64/170/1
f 60/164/1 59/162/1 66/174/1 65/172/1
f 59/162/1 58/160/1 67/176/1 66/174/1
f 58/160/1 57/1/1 68/4/1 67/176/1
f 226/63/10 227/109/10 228/202/10 225/203/10
f 230/107/10 231/105/10 232/204/10 229/205/10
f 234/206/10 235/102/10 236/207/10 233/208/10
f 238/63/5 239/101/5 240/209/5 237/210/5
f 242/100/5 243/99/5 244/211/5 241/212/5
f 246/98/5 247/64/5 248/213/5 245/214/5
f 237/210/25 236/207/25 235/102/25 238/63/25
f 239/101/26 234/206/26 233/208/26 240/209/26
f 241/212/25 232/204/25 231/105/25 242/100/25
f 243/99/26 230/107/26 229/205/26 244/211/26
f 245/214/25 228/202/25 227/109/25 246/98/25
f 247/64/26 226/63/26 225/203/26 248/213/26
f 207/63/6 208/109/6 227/109/6 226/63/6
f 228/202/23 245/214/23 248/213/23 225/203/23
f 218/64/22 207/63/22 226/63/22 247/64/22
f 208/109/20 217/98/20 246/98/20 227/109/20
f 209/107/6 210/105/6 231/105/6 230/107/6
f 232/204/23 241/212/23 244/211/23 229/205/23
f 216/99/22 209/107/22 230/107/22 243/99/22
f 210/105/20 215/100/20 242/100/20 231/105/20
f 211/104/6 212/102/6 235/102/6 234/206/6
f 236/207/23 237/210/23 240/209/23 233/208/23
f 214/101/22 211/104/22 234/206/22 239/101/22
f 212/102/20 213/63/20 238/63/20 235/102/20
f 213/63/1 214/101/1 239/101/1 238/63/1
f 215/100/1 216/99/1 243/99/1 242/100/1
f 217/98/1 218/64/1 247/64/1 246/98/1
